<?xml version="1.0" encoding="utf-8"?>
<!-- Generator: Adobe Illustrator 22.1.0, SVG Export Plug-In . SVG Version: 6.00 Build 0)  -->
<svg version="1.1" id="Слой_1" xmlns="http://www.w3.org/2000/svg" xmlns:xlink="http://www.w3.org/1999/xlink" x="0px" y="0px"
	 viewBox="0 0 51.5 51.4" style="enable-background:new 0 0 51.5 51.4;" xml:space="preserve">
<style type="text/css">
	.st0{fill:#FFFFFF;stroke:#4ABEF7;}
	.st1{fill:#4ABEF7;}
</style>
<g>
	<polygon class="st0" points="41.8,40.3 13.8,40.3 13.8,14.6 28.1,9.3 41.8,14.3 	"/>
	<g>
		<rect x="34.3" y="18.4" class="st1" width="2.1" height="2"/>
		<rect x="29.3" y="18.4" class="st1" width="2.1" height="2"/>
		<rect x="24.3" y="18.4" class="st1" width="2.1" height="2"/>
		<rect x="19.2" y="18.4" class="st1" width="2.1" height="2"/>
		<rect x="34.3" y="21.5" class="st1" width="2.1" height="2"/>
		<rect x="29.3" y="21.5" class="st1" width="2.1" height="2"/>
		<rect x="24.3" y="21.5" class="st1" width="2.1" height="2"/>
		<rect x="19.2" y="21.5" class="st1" width="2.1" height="2"/>
		<rect x="34.3" y="26" class="st1" width="2.1" height="2"/>
		<rect x="29.3" y="26" class="st1" width="2.1" height="2"/>
		<rect x="24.3" y="26" class="st1" width="2.1" height="2"/>
		<rect x="19.2" y="26" class="st1" width="2.1" height="2"/>
		<rect x="34.3" y="29" class="st1" width="2.1" height="2"/>
		<rect x="29.3" y="29" class="st1" width="2.1" height="2"/>
		<rect x="24.3" y="29" class="st1" width="2.1" height="2"/>
		<rect x="19.2" y="29" class="st1" width="2.1" height="2"/>
	</g>
	<polygon class="st0" points="44.2,40.3 11.5,40.3 11.5,40.3 44.2,40.3 	"/>
	<polygon class="st0" points="19.8,33.5 14.2,33.5 14.2,33.5 19.8,33.5 	"/>
	<polygon class="st0" points="41.8,33.5 36.2,33.5 36.2,33.5 41.8,33.5 	"/>
	<path class="st0" d="M45.5,15.1l-16-10.7c-0.5-0.3-1.1-0.5-1.6-0.5c-0.6,0-1.1,0.1-1.6,0.5l-16,10.7c-1.3,0.9-1.6,2.6-0.8,3.9
		c0.9,1.3,2.6,1.6,3.9,0.8l14.5-9.7l14.5,9.7c1.3,0.9,3,0.5,3.9-0.8C47.1,17.7,46.8,15.9,45.5,15.1z"/>
</g>
<g>
	<polygon class="st0" points="30.5,46 10.1,46 10.1,31.1 20.5,28 30.5,30.9 	"/>
	<rect x="20.6" y="35.8" class="st1" width="2.1" height="2"/>
	<rect x="16.8" y="35.8" class="st1" width="2.1" height="2"/>
	<rect x="12.9" y="35.8" class="st1" width="2.1" height="2"/>
	<rect x="20.6" y="38.8" class="st1" width="2.1" height="2"/>
	<rect x="20.6" y="41.8" class="st1" width="2.1" height="2"/>
	<rect x="24.3" y="35.8" class="st1" width="2.1" height="2"/>
	<rect x="24.3" y="38.8" class="st1" width="2.1" height="2"/>
	<rect x="24.3" y="41.8" class="st1" width="2.1" height="2"/>
	<rect x="16.8" y="38.8" class="st1" width="2.1" height="2"/>
	<rect x="12.9" y="38.9" class="st1" width="2.1" height="2"/>
	<rect x="12.9" y="39" class="st0" width="5.6" height="7"/>
	<polygon class="st0" points="34.1,46 6.6,46 6.6,46 34.1,46 	"/>
	<path class="st0" d="M33.2,32.7l-11.7-7.8c-0.4-0.2-0.8-0.3-1.2-0.3c-0.4,0-0.8,0.1-1.2,0.3L7.4,32.7c-0.9,0.6-1.2,1.9-0.6,2.8
		c0.6,0.9,1.9,1.2,2.8,0.6l10.6-7l10.6,7c0.9,0.6,2.2,0.4,2.8-0.6C34.4,34.6,34.1,33.3,33.2,32.7z"/>
</g>
</svg>
