<?xml version="1.0" encoding="utf-8"?>
<!-- Generator: Adobe Illustrator 22.1.0, SVG Export Plug-In . SVG Version: 6.00 Build 0)  -->
<svg version="1.1" id="Слой_1" xmlns="http://www.w3.org/2000/svg" xmlns:xlink="http://www.w3.org/1999/xlink" x="0px" y="0px"
	 viewBox="0 0 46.7 53.9" style="enable-background:new 0 0 46.7 53.9;" xml:space="preserve">
<style type="text/css">
	.st0{fill:#FFFFFF;stroke:#4ABEF7;}
	.st1{fill:#4ABEF7;}
	.st2{fill:#FFFFFF;stroke:#56BBEB;stroke-width:0.5;stroke-miterlimit:10;}
	.st3{fill:none;stroke:#4ABEF7;}
</style>
<g>
	<polygon class="st0" points="38.3,42.2 10.3,42.2 10.3,16.5 24.6,11.2 38.3,16.2 	"/>
	<g>
		<rect x="30.8" y="20.3" class="st1" width="2.1" height="2"/>
		<rect x="25.8" y="20.3" class="st1" width="2.1" height="2"/>
		<rect x="20.8" y="20.3" class="st1" width="2.1" height="2"/>
		<rect x="15.7" y="20.3" class="st1" width="2.1" height="2"/>
		<rect x="30.8" y="23.4" class="st1" width="2.1" height="2"/>
		<rect x="25.8" y="23.4" class="st1" width="2.1" height="2"/>
		<rect x="20.8" y="23.4" class="st1" width="2.1" height="2"/>
		<rect x="15.7" y="23.4" class="st1" width="2.1" height="2"/>
		<rect x="30.8" y="27.9" class="st1" width="2.1" height="2"/>
		<rect x="25.8" y="27.9" class="st1" width="2.1" height="2"/>
		<rect x="20.8" y="27.9" class="st1" width="2.1" height="2"/>
		<rect x="15.7" y="27.9" class="st1" width="2.1" height="2"/>
		<rect x="30.8" y="30.9" class="st1" width="2.1" height="2"/>
		<rect x="25.8" y="30.9" class="st1" width="2.1" height="2"/>
		<rect x="20.8" y="30.9" class="st1" width="2.1" height="2"/>
		<rect x="15.7" y="30.9" class="st1" width="2.1" height="2"/>
	</g>
	<polygon class="st0" points="40.7,42.2 8,42.2 8,42.2 	"/>
	<polygon class="st0" points="16.3,35.4 10.7,35.4 10.7,35.4 	"/>
	<polygon class="st0" points="38.3,35.4 32.7,35.4 32.7,35.4 	"/>
	<path class="st0" d="M42,17L26,6.3c-0.5-0.3-1.1-0.5-1.6-0.5c-0.6,0-1.1,0.1-1.6,0.5L6.8,17c-1.3,0.9-1.6,2.6-0.8,3.9
		c0.9,1.3,2.6,1.6,3.9,0.8L24.4,12l14.5,9.7c1.3,0.9,3,0.5,3.9-0.8C43.6,19.6,43.3,17.8,42,17z"/>
	<polygon class="st0" points="27,47.9 6.6,47.9 6.6,33 17,29.9 27,32.8 	"/>
	<rect x="17.1" y="37.7" class="st1" width="2.1" height="2"/>
	<rect x="13.3" y="37.7" class="st1" width="2.1" height="2"/>
	<rect x="9.4" y="37.7" class="st1" width="2.1" height="2"/>
	<rect x="17.1" y="40.7" class="st1" width="2.1" height="2"/>
	<rect x="17.1" y="43.7" class="st1" width="2.1" height="2"/>
	<rect x="20.8" y="37.7" class="st1" width="2.1" height="2"/>
	<rect x="20.8" y="40.7" class="st1" width="2.1" height="2"/>
	<rect x="20.8" y="43.7" class="st1" width="2.1" height="2"/>
	<rect x="13.3" y="40.7" class="st1" width="2.1" height="2"/>
	<rect x="9.4" y="40.8" class="st1" width="2.1" height="2"/>
	<rect x="9.4" y="40.9" class="st0" width="5.6" height="7"/>
	<polygon class="st0" points="30.6,47.9 3.1,47.9 3.1,47.9 	"/>
	<path class="st0" d="M29.7,34.6L18,26.8c-0.4-0.2-0.8-0.3-1.2-0.3c-0.4,0-0.8,0.1-1.2,0.3L3.9,34.6c-0.9,0.6-1.2,1.9-0.6,2.8
		c0.6,0.9,1.9,1.2,2.8,0.6l10.6-7l10.6,7c0.9,0.6,2.2,0.4,2.8-0.6C30.9,36.5,30.6,35.2,29.7,34.6z"/>
</g>
</svg>
