<?xml version="1.0" encoding="utf-8"?>
<!-- Generator: Adobe Illustrator 22.1.0, SVG Export Plug-In . SVG Version: 6.00 Build 0)  -->
<svg version="1.1" id="Слой_1" xmlns="http://www.w3.org/2000/svg" xmlns:xlink="http://www.w3.org/1999/xlink" x="0px" y="0px"
	 viewBox="0 0 43 53.9" style="enable-background:new 0 0 43 53.9;" xml:space="preserve">
<style type="text/css">
	.st0{fill:#FFFFFF;stroke:#4ABEF7;}
	.st1{fill:#4ABEF7;}
	.st2{fill:#FFFFFF;stroke:#56BBEB;stroke-width:0.5;stroke-miterlimit:10;}
	.st3{fill:none;stroke:#4ABEF7;}
</style>
<g>
	<path class="st0" d="M8.3,22.9c0,0,3.8,0.4,4.3,0s0.2-1,0.4-1.2s0.7,0.1,1.2,0.3s1.2-0.4,1-1.5s-0.2-2.3,0.9-3s0.8-1,0.8-1.8
		C16.8,15,18.1,14,19,14.1s1.7-0.3,1.8-1c0.2-0.7,1.1-1.8,2.4-1.5s1.2,2.8,1.8,3.3s1.3-0.4,1.9-0.9s1.7-0.7,2.2,0.4s0.9,1.5,0.8,2.4
		c-0.1,0.9-0.8,1.1-0.4,2s3.1,4,3.3,4.2s0.3,0.8,0.3,0.8s1-0.5,1.8,0s1.3,0.8,1.1,1.6s0,1.3-1,1.5s-1.9,0.2-2.8-0.5
		c-0.8-0.7-1.3-0.8-1.2-0.3s0.3,1.2,0.7,1.5c0.4,0.3,0.4,0.7,0.3,1.1c-0.1,0.4-0.2,0.3,0.3,0.8c0.4,0.5,0.8,1.1,0.5,1.6
		s-1.9-0.3-2.5,0.5c-0.6,0.8-1,1.7-0.7,2.6s-0.2,2.1-1.2,1.7s-2.5-1.8-3.2-2s-1.2-0.5-1.3,0.2s-0.2,0.1-1.2,0s-1.6,0-1.8,0.6
		c-0.2,0.6,0.1,0.4-1.4-0.8S12,32.8,12,32.8s-1.3,1.2-1.3,2s-2.3,1-2.4-0.1s1-1.5,0.3-2.3c-0.7-0.9-1,0-1.4-1.1
		c-0.3-1.1,0-1.8,1.3-2s2.3-0.2,2.6-1s-0.1-1.5-1.3-2.4c-1.2-1-2.1-2-1.9-2.4S8.3,22.9,8.3,22.9z"/>
</g>
</svg>
