<?xml version="1.0" encoding="utf-8"?>
<!-- Generator: Adobe Illustrator 22.1.0, SVG Export Plug-In . SVG Version: 6.00 Build 0)  -->
<svg version="1.1" id="Слой_1" xmlns="http://www.w3.org/2000/svg" xmlns:xlink="http://www.w3.org/1999/xlink" x="0px" y="0px"
	 viewBox="0 0 45.5 53.7" style="enable-background:new 0 0 45.5 53.7;" xml:space="preserve">
<style type="text/css">
	.st0{fill:#FFFFFF;stroke:#4ABEF7;}
	.st1{fill:#4ABEF7;}
	.st2{fill:#FFFFFF;stroke:#56BBEB;stroke-width:0.5;stroke-miterlimit:10;}
	.st3{fill:none;stroke:#4ABEF7;}
</style>
<g>
	<rect x="8.5" y="9.3" class="st0" width="29" height="38.6"/>
	<path class="st0" d="M20.7,19.6h-7.9c-0.2,0-0.3-0.1-0.3-0.3v-5.5c0-0.2,0.1-0.3,0.3-0.3h7.9c0.2,0,0.3,0.1,0.3,0.3v5.5
		C21,19.4,20.9,19.6,20.7,19.6z"/>
	<path class="st0" d="M33.1,19.6h-7.9c-0.2,0-0.3-0.1-0.3-0.3v-5.5c0-0.2,0.1-0.3,0.3-0.3h7.9c0.2,0,0.3,0.1,0.3,0.3v5.5
		C33.4,19.4,33.2,19.6,33.1,19.6z"/>
	<path class="st0" d="M20.7,27.6h-7.9c-0.2,0-0.3-0.1-0.3-0.3v-5.5c0-0.2,0.1-0.3,0.3-0.3h7.9c0.2,0,0.3,0.1,0.3,0.3v5.5
		C21,27.5,20.9,27.6,20.7,27.6z"/>
	<path class="st0" d="M33.1,27.6h-7.9c-0.2,0-0.3-0.1-0.3-0.3v-5.5c0-0.2,0.1-0.3,0.3-0.3h7.9c0.2,0,0.3,0.1,0.3,0.3v5.5
		C33.4,27.5,33.2,27.6,33.1,27.6z"/>
	<path class="st0" d="M20.7,35.7h-7.9c-0.2,0-0.3-0.1-0.3-0.3v-5.5c0-0.2,0.1-0.3,0.3-0.3h7.9c0.2,0,0.3,0.1,0.3,0.3v5.5
		C21,35.6,20.9,35.7,20.7,35.7z"/>
	<path class="st0" d="M20.7,43.7h-7.9c-0.2,0-0.3-0.1-0.3-0.3v-5.5c0-0.2,0.1-0.3,0.3-0.3h7.9c0.2,0,0.3,0.1,0.3,0.3v5.5
		C21,43.6,20.9,43.7,20.7,43.7z"/>
	<path class="st0" d="M33.1,35.7h-7.9c-0.2,0-0.3-0.1-0.3-0.3v-5.5c0-0.2,0.1-0.3,0.3-0.3h7.9c0.2,0,0.3,0.1,0.3,0.3v5.5
		C33.4,35.6,33.2,35.7,33.1,35.7z"/>
	<path class="st0" d="M33.1,47.9h-7.9c-0.2,0-0.3-0.1-0.3-0.3V38c0-0.2,0.1-0.3,0.3-0.3h7.9c0.2,0,0.3,0.1,0.3,0.3v9.6
		C33.4,47.8,33.2,47.9,33.1,47.9z"/>
</g>
</svg>
