<?xml version="1.0" encoding="utf-8"?>
<!-- Generator: Adobe Illustrator 22.1.0, SVG Export Plug-In . SVG Version: 6.00 Build 0)  -->
<svg version="1.1" id="Слой_1" xmlns="http://www.w3.org/2000/svg" xmlns:xlink="http://www.w3.org/1999/xlink" x="0px" y="0px"
	 viewBox="0 0 46 53.7" style="enable-background:new 0 0 46 53.7;" xml:space="preserve">
<style type="text/css">
	.st0{fill:#FFFFFF;stroke:#4ABEF7;}
	.st1{fill:#4ABEF7;}
	.st2{fill:#FFFFFF;stroke:#56BBEB;stroke-width:0.5;stroke-miterlimit:10;}
	.st3{fill:none;stroke:#4ABEF7;}
</style>
<g>
	<g>
		<rect x="26.8" y="19.7" class="st0" width="15.5" height="28.3"/>
		<rect x="37.9" y="22.6" class="st1" width="2.1" height="2"/>
		<rect x="34.1" y="22.6" class="st1" width="2.1" height="2"/>
		<rect x="30.2" y="22.6" class="st1" width="2.1" height="2"/>
		<rect x="37.9" y="26" class="st1" width="2.1" height="2"/>
		<rect x="34.1" y="26" class="st1" width="2.1" height="2"/>
		<rect x="30.2" y="26" class="st1" width="2.1" height="2"/>
		<rect x="37.9" y="29.4" class="st1" width="2.1" height="2"/>
		<rect x="34.1" y="29.4" class="st1" width="2.1" height="2"/>
		<rect x="30.2" y="29.4" class="st1" width="2.1" height="2"/>
		<rect x="37.9" y="32.9" class="st1" width="2.1" height="2"/>
		<rect x="34.1" y="32.9" class="st1" width="2.1" height="2"/>
		<rect x="30.2" y="32.9" class="st1" width="2.1" height="2"/>
		<rect x="37.9" y="36.3" class="st1" width="2.1" height="2"/>
		<rect x="34.1" y="36.3" class="st1" width="2.1" height="2"/>
		<rect x="30.2" y="36.3" class="st1" width="2.1" height="2"/>
		<rect x="37.9" y="39.7" class="st1" width="2.1" height="2"/>
		<rect x="34.1" y="39.7" class="st1" width="2.1" height="2"/>
		<rect x="30.2" y="39.7" class="st1" width="2.1" height="2"/>
		<rect x="37.9" y="43" class="st1" width="2.1" height="2"/>
		<rect x="34.1" y="43" class="st1" width="2.1" height="2"/>
		<rect x="30.2" y="43" class="st1" width="2.1" height="2"/>
	</g>
	<g>
		<polygon class="st0" points="24.4,10.8 24.4,7 9,7 9,10.8 5.3,10.8 5.3,48 28.2,48 28.2,10.8 		"/>
		<rect x="17.7" y="14.3" class="st1" width="2.1" height="2"/>
		<rect x="13.9" y="14.3" class="st1" width="2.1" height="2"/>
		<rect x="10" y="14.3" class="st1" width="2.1" height="2"/>
		<rect x="21.4" y="14.3" class="st1" width="2.1" height="2"/>
		<rect x="17.7" y="18.2" class="st1" width="2.1" height="3"/>
		<rect x="13.9" y="18.2" class="st1" width="2.1" height="3"/>
		<rect x="10" y="18.2" class="st1" width="2.1" height="3"/>
		<rect x="21.4" y="18.2" class="st1" width="2.1" height="3"/>
		<rect x="17.7" y="22.6" class="st1" width="2.1" height="3"/>
		<rect x="13.9" y="22.6" class="st1" width="2.1" height="3"/>
		<rect x="10" y="22.6" class="st1" width="2.1" height="3"/>
		<rect x="21.4" y="22.6" class="st1" width="2.1" height="3"/>
		<rect x="17.7" y="27" class="st1" width="2.1" height="3"/>
		<rect x="13.9" y="27" class="st1" width="2.1" height="3"/>
		<rect x="10" y="27" class="st1" width="2.1" height="3"/>
		<rect x="21.4" y="27" class="st1" width="2.1" height="3"/>
		<rect x="17.7" y="31.4" class="st1" width="2.1" height="3"/>
		<rect x="13.9" y="31.4" class="st1" width="2.1" height="3"/>
		<rect x="10" y="31.4" class="st1" width="2.1" height="3"/>
		<rect x="21.4" y="31.4" class="st1" width="2.1" height="3"/>
		<rect x="17.7" y="35.9" class="st1" width="2.1" height="3"/>
		<rect x="13.9" y="35.9" class="st1" width="2.1" height="3"/>
		<rect x="10" y="35.9" class="st1" width="2.1" height="3"/>
		<rect x="21.4" y="35.9" class="st1" width="2.1" height="3"/>
		<rect x="9.8" y="40" class="st1" width="2.1" height="5.8"/>
		<rect x="21.2" y="40" class="st1" width="2.1" height="5.8"/>
		<rect x="13.9" y="40" class="st1" width="5.9" height="8"/>
	</g>
</g>
</svg>
