<?xml version="1.0" encoding="utf-8"?>
<!-- Generator: Adobe Illustrator 22.1.0, SVG Export Plug-In . SVG Version: 6.00 Build 0)  -->
<svg version="1.1" id="Слой_1" xmlns="http://www.w3.org/2000/svg" xmlns:xlink="http://www.w3.org/1999/xlink" x="0px" y="0px"
	 viewBox="0 0 45.5 53.9" style="enable-background:new 0 0 45.5 53.9;" xml:space="preserve">
<style type="text/css">
	.st0{fill:#FFFFFF;stroke:#4ABEF7;}
	.st1{fill:#4ABEF7;}
	.st2{fill:#FFFFFF;stroke:#56BBEB;stroke-width:0.5;stroke-miterlimit:10;}
	.st3{fill:none;stroke:#4ABEF7;}
</style>
<g>
	<polygon class="st0" points="34.8,9.6 6.9,9.6 6.9,9.6 	"/>
	<polygon class="st0" points="34.3,28.9 34.3,9.2 34.3,9.2 	"/>
	<polygon class="st0" points="22.7,44.4 6.9,44.4 6.9,44.4 	"/>
	<rect x="6.9" y="9.6" class="st0" width="6.8" height="34.8"/>
	<rect x="16.9" y="15" class="st0" width="14.1" height="8.8"/>
	<polygon class="st0" points="29.1,18.1 19.2,18.1 19.2,18.1 	"/>
	<polygon class="st0" points="29.1,20.3 19.3,20.3 19.3,20.3 	"/>
	<g>
		<path class="st0" d="M39,34.4L31,42.4c-0.5,0.5-1.4,0.5-1.9,0l-1.8-1.8c-0.5-0.5-0.5-1.4,0-1.9l8.1-8.1c0.5-0.5,1.4-0.5,1.9,0
			l1.8,1.8C39.6,33,39.6,33.8,39,34.4z"/>
		<polygon class="st0" points="37,36.4 33.1,32.8 33.1,32.8 		"/>
		<polygon class="st0" points="26.9,39.6 30.4,42.6 25.3,44.2 		"/>
	</g>
</g>
</svg>
